<svg class="w-fit" width="200" height="180" viewBox="0 0 277 259" fill="none" xmlns="http://www.w3.org/2000/svg">
    <path
        d="M123.667 2.6C120.733 4.33333 118.333 6.6 118.333 7.66666C118.333 9.8 172.067 42.6 174.333 41.9333C175 41.6667 176.467 39.9333 177.533 38.0667C181.533 31.1333 175.667 20.6 164.733 15C161.933 13.5333 155.267 9.8 149.8 6.6C137.4 -0.600002 131 -1.53334 123.667 2.6Z"
        fill="white" />
    <path
        d="M79.1333 3.26665C72.3333 6.59998 67 14.8667 67 22.0667C67 38.0667 82.2 47.9333 98.0667 42.2C102.6 40.6 103.133 40.7333 113.8 46.8667C119.933 50.4667 127 54.4667 129.533 55.9333C157.667 71.8 157.8 71.8 159.667 85.9333C160.467 92.4667 160.333 93 155.533 98.2C152.867 101.267 150.867 103.933 151.133 104.2C151.4 104.467 153 105.4 154.733 106.2C156.467 107.133 158.867 109.667 160.2 111.8L162.6 115.667L169.4 108.467L176.333 101.133V84.4667C176.333 74.4667 175.667 66.4667 174.733 64.3333C173.8 62.2 169.533 58.7333 164.467 55.8C109.667 24.4667 109.933 24.7333 109.267 19.4C108.333 12.6 103.667 6.46665 97.1333 3.53332C90.3333 0.466652 85 0.333321 79.1333 3.26665ZM97.6667 12.8667C102.733 17.9333 103.933 22.8667 101.267 28.4667C95.4 40.6 76.7333 38.7333 74.2 25.5333C73.2667 20.3333 76.6 12.6 80.7333 10.6C86.6 7.79999 93.5333 8.73331 97.6667 12.8667Z"
        fill="white" />
    <path
        d="M196.733 15.6667C189.4 20.4667 186.6 26.6 187.267 35.8C187.8 42.7333 188.467 44.3333 192.867 48.8667L197.8 53.9333L197.4 85L197 115.933L189.8 122.6C182.067 129.667 182.467 129.533 170.2 127C166.067 126.067 165.933 126.2 165.267 131.8C165 135 164.2 138.867 163.667 140.467C162.867 143 163.667 143.4 171.533 145.4C176.467 146.6 181.4 147.133 182.733 146.733C188.2 144.733 206.733 133.533 210.733 129.8L215 125.8V90.2V54.7333L219.667 51.5333C224.6 48.2 229.667 39.2667 229.667 33.9333C229.667 29.4 224.2 19.5333 220.067 16.4667C214.467 12.4667 202.2 12.0667 196.733 15.6667ZM215 21.9333C220.2 25.4 221.533 27.9333 221.667 33.2667C221.667 40.4667 219.267 44.6 213.8 46.8667C206.6 49.6667 200.467 48.0667 196.6 42.3333C187.933 29.6667 202.733 13.4 215 21.9333Z"
        fill="white" />
    <path
        d="M44.6 53.9333C29.4 62.8667 26.6 65.1333 24.4666 69.6667C22.4666 73.6667 22.0666 76.3333 22.8666 80.3333C23.4 83.4 24.4666 85.5333 25.4 85.2667C26.3333 85.1333 39.4 78.3333 54.3333 70.2C77.2666 57.8 81.6666 54.8667 81.6666 52.3333C81.6666 47.6667 77.1333 44.6 69.2666 44.0667C62.6 43.5333 61.5333 43.9333 44.6 53.9333Z"
        fill="white" />
    <path
        d="M231.933 67.2667C230.467 94.6 230.733 114.867 232.6 116.733C235.267 119.4 238.467 118.467 244.467 113.133L250.333 107.933V86.2C250.333 61.6667 249.4 58.2 241.267 53.1333C233.133 48.0667 232.867 48.4667 231.933 67.2667Z"
        fill="white" />
    <path
        d="M93.6666 66.7333C91.8 67.6667 81.4 73.6667 70.3333 79.9333C38.8666 97.8 33.8 100.2 30.0666 98.4667C25.5333 96.4667 16.8666 96.6 12.4666 99C-8.06671 109.533 -0.333378 139.667 23 139.667C32.2 139.667 43 129.133 43 120.333C43 115.8 44.3333 114.6 57 107.667C62.8666 104.467 73.1333 98.7333 83 93C97.4 84.7333 99.6666 84.3333 109.533 87.9333C117.667 90.8667 118.2 91.2667 120.067 97C121 100.333 122.067 103.8 122.467 104.733C122.867 106.067 123.533 106.067 125.933 104.467C127.667 103.4 131.267 102.067 134.067 101.667C136.733 101.133 139 99.9333 139 99.1333C139 96.7333 134.867 84.6 133.4 82.7333C132.733 81.9333 126.467 77.8 119.533 73.6667C105.933 65.5333 99.1333 63.6666 93.6666 66.7333ZM27.4 105.267C34.7333 109 37.4 115.533 35 123C33.1333 128.733 28.7333 131.933 22.4666 132.067C13.5333 132.333 7.93329 127 8.06662 118.2C8.19995 111.533 9.93329 108.467 15.2666 105.933C20.4666 103.267 23.5333 103.133 27.4 105.267Z"
        fill="white" />
    <path
        d="M87.6666 114.467C84.0666 116.6 78.0666 119.933 74.3333 121.8C62.2 128.067 62.3333 127.133 61.9333 168.867C61.5333 202.333 61.2666 205.4 59.1333 205.933C54.7333 207 49.6666 216.867 49.6666 224.333C49.6666 236.733 57.9333 245 70.4666 245C79.4 245 85.2666 241.133 89.5333 232.467C92.4666 226.6 92.6 225.4 91.1333 219.8C90.0666 215.667 87.9333 212.067 84.4666 208.733L79.2666 203.8L79.9333 172.333L80.7333 141L87.1333 135C93.9333 128.6 96.4666 128.067 106.067 130.2C110.6 131.267 111 131.133 111 128.333C111 126.733 111.933 122.867 113 119.8C114.467 115.533 114.6 114.067 113.267 113.8C97.6666 109.4 96.2 109.4 87.6666 114.467ZM80.4666 214.2C87.4 221.267 84.7333 233.933 75.6666 237C65.6666 240.333 56.3333 233.8 56.3333 223.4C56.3333 215.533 61.9333 210.333 70.3333 210.333C75.4 210.333 77.2666 211 80.4666 214.2Z"
        fill="white" />
    <path
        d="M126.467 116.6C120.333 122.467 120.067 123.133 120.733 128.333C122.467 140.867 126.2 144.733 137.933 145.933C144.867 146.6 145.267 146.467 150.2 141.533C156.867 134.867 157.667 132.467 155.533 124.6C153.267 116.067 150.733 113.4 142.867 111.8C133.533 109.8 133.667 109.667 126.467 116.6Z"
        fill="white" />
    <path
        d="M247.533 122.867C242.467 125.133 235.533 133.4 234.467 138.333C233.933 141.4 231.533 143.267 222.333 148.6C216.067 152.067 204.733 158.733 197 163.133C189.4 167.667 181.8 171.667 180.067 172.067C178.333 172.467 173.133 171.533 168.333 169.933C159.8 167 159.667 167 157.133 159.667C155.667 155.667 154.467 152.2 154.2 151.933C154.067 151.667 152.067 152.467 149.8 153.533C147.667 154.733 143.933 155.667 141.533 155.667C137.8 155.667 137.4 155.933 138.333 158.6C138.733 160.333 139.8 164.067 140.6 167C141.4 169.933 143 173.4 144.2 174.733C147.267 178.333 173.8 193 177.133 193C180.6 193 185.267 190.6 214.333 173.667C240.067 158.733 239.533 158.867 245.667 161.667C259.133 167.8 273.133 161.133 276.333 147.133C279.267 134.2 267.933 120.867 254.333 121C252.867 121.133 249.8 121.933 247.533 122.867ZM263.133 130.333C268.6 133.267 271.133 142.867 268.2 149.4C264.467 157.667 250.733 159.4 244.733 152.333C239.133 145.8 241.4 133.267 248.867 130.333C252.733 128.733 260.067 128.733 263.133 130.333Z"
        fill="white" />
    <path
        d="M32.2 144.867L27 150.067V171.933C27 192.6 27.1333 194.2 30.0667 198.467C33 203 42.4667 208.6 44.2 207C45.5333 205.533 46.7333 143.133 45.2667 141.267C42.8667 138.067 37.5333 139.533 32.2 144.867Z"
        fill="white" />
    <path
        d="M108.067 148.733C104.6 152.467 101.4 157 100.867 158.867C100.467 160.733 100.2 169.267 100.467 177.667C101.133 196.2 100.333 195.267 125 209.4C134.6 214.867 147.267 222.2 153.133 225.8C164.067 232.333 164.067 232.333 165 239C165.667 244.6 166.867 246.6 171.667 251.267C180.6 259.667 190.6 260.467 199 253.4C217.267 238.067 202.733 209.267 180.067 216.067L174.2 217.933L149.667 203.533C136.2 195.667 124.067 188.067 122.733 186.6C121.267 185.133 119.267 180.067 118.2 175L116.333 165.933L121.667 159.533L127 153.133L124.067 151.533C122.333 150.733 119.533 148.333 117.667 146.067L114.2 142.067L108.067 148.733ZM193.533 224.2C203 229.133 202.2 244.867 192.333 249C187.267 251.133 179.267 249.933 175.933 246.467C172.333 242.867 171.4 232.733 174.2 228.333C178.067 222.467 186.6 220.6 193.533 224.2Z"
        fill="white" />
    <path
        d="M227.8 185C214.6 192.333 202.867 198.6 201.533 199C194.6 201.267 195 209.4 202.333 212.467C204.867 213.533 208.6 214.333 210.733 214.333C216.2 214.333 249.4 194.733 252.6 189.667C255.4 185 256.067 171.667 253.4 171.667C252.467 171.667 240.867 177.667 227.8 185Z"
        fill="white" />
    <path
        d="M99.9333 218.067C95.5333 222.867 98.4666 233.133 105.8 238.733C114.333 245.133 139.533 258.333 143.4 258.333C147.4 258.333 156.867 254.067 158.467 251.533C159.533 249.8 155.4 246.333 145.8 240.867C142.467 239 131.8 232.467 122.2 226.6C112.467 220.6 104.067 215.667 103.4 215.667C102.6 215.667 101.133 216.733 99.9333 218.067Z"
        fill="white" />
</svg>